<svg width="42" height="28" viewBox="0 0 42 28" fill="none" xmlns="http://www.w3.org/2000/svg">
<path d="M2.29167 28L38.9583 28C40.2187 28 41.25 26.95 41.25 25.6667C41.25 24.3833 40.2187 23.3333 38.9583 23.3333L2.29167 23.3333C1.03125 23.3333 0 24.3833 0 25.6667C0 26.95 1.03125 28 2.29167 28ZM2.29167 16.3333L38.9583 16.3333C40.2188 16.3333 41.25 15.2833 41.25 14C41.25 12.7167 40.2188 11.6667 38.9583 11.6667L2.29167 11.6667C1.03125 11.6667 0 12.7167 0 14C0 15.2833 1.03125 16.3333 2.29167 16.3333ZM0 2.33333C0 3.61667 1.03125 4.66667 2.29167 4.66667L38.9583 4.66667C40.2188 4.66667 41.25 3.61667 41.25 2.33333C41.25 1.05 40.2188 0 38.9583 0L2.29167 0C1.03125 0 0 1.05 0 2.33333Z" fill="black"/>
</svg>
