<svg width="51" height="52" viewBox="0 0 51 52" fill="none" xmlns="http://www.w3.org/2000/svg">
<g clip-path="url(#clip0_1_36)">
<path d="M50.9757 26.4865C50.9757 24.356 50.8022 22.8014 50.4266 21.1892H26.008V30.8048H40.3412C40.0523 33.1945 38.4918 36.7932 35.024 39.2114L34.9754 39.5333L42.6961 45.4921L43.2311 45.5453C48.1436 41.0252 50.9757 34.3748 50.9757 26.4865Z" fill="#4285F4"/>
<path d="M26.008 51.8214C33.0301 51.8214 38.9251 49.5181 43.2311 45.5453L35.024 39.2114C32.8279 40.7372 29.8802 41.8025 26.008 41.8025C19.1304 41.8025 13.2931 37.2826 11.2122 31.0353L10.9072 31.0611L2.8791 37.2509L2.77411 37.5416C7.05094 46.0057 15.8359 51.8214 26.008 51.8214Z" fill="#34A853"/>
<path d="M11.2122 31.0353C10.6632 29.4231 10.3454 27.6956 10.3454 25.9107C10.3454 24.1256 10.6632 22.3983 11.1833 20.7861L11.1688 20.4428L3.04008 14.1535L2.77412 14.2796C1.01143 17.7919 0 21.7362 0 25.9107C0 30.0852 1.01143 34.0292 2.77412 37.5416L11.2122 31.0353Z" fill="#FBBC05"/>
<path d="M26.008 10.0187C30.8916 10.0187 34.1859 12.1204 36.0644 13.8767L43.4044 6.73678C38.8965 2.56229 33.0301 0 26.008 0C15.8359 0 7.05094 5.81546 2.77411 14.2796L11.1833 20.7861C13.2931 14.5388 19.1304 10.0187 26.008 10.0187Z" fill="#EB4335"/>
</g>
<defs>
<clipPath id="clip0_1_36">
<rect width="51" height="52" fill="white"/>
</clipPath>
</defs>
</svg>
