<svg width="44" height="50" viewBox="0 0 44 50" fill="none" xmlns="http://www.w3.org/2000/svg">
<path d="M23.0769 0C21.7168 0 20.4125 0.540291 19.4507 1.50202C18.489 2.46374 17.9487 3.76812 17.9487 5.12821C17.9487 6.48829 18.489 7.79267 19.4507 8.7544C20.4125 9.71612 21.7168 10.2564 23.0769 10.2564C25.9231 10.2564 28.2051 7.97436 28.2051 5.12821C28.2051 3.76812 27.6648 2.46374 26.7031 1.50202C25.7414 0.540291 24.437 0 23.0769 0ZM0 12.8205V17.9487H15.3846V33.3333L2.38462 46.3333L6 50L23.2308 32.7436L33.3333 38.7949V48.718H38.4615V37.359C38.4615 36.4359 38 35.6154 37.1795 35.1539L28.2051 29.7436V17.9487H43.5898V12.8205H0Z" fill="black"/>
</svg>
