<svg width="64" height="52" viewBox="0 0 64 52" fill="none" xmlns="http://www.w3.org/2000/svg">
<path d="M64 6.12754C61.645 7.16679 59.1145 7.86917 56.4585 8.18515C59.1698 6.56792 61.2515 4.00699 62.2318 0.955656C59.6544 2.4778 56.8345 3.55025 53.894 4.12666C51.4988 1.58712 48.0865 0 44.3097 0C37.0583 0 31.179 5.85087 31.179 13.0672C31.179 14.0915 31.2952 15.0887 31.519 16.0454C20.6065 15.5002 10.9315 10.298 4.45525 2.392C3.32525 4.32197 2.67775 6.56693 2.67775 8.96142C2.67775 13.4951 4.996 17.4946 8.519 19.8381C6.43387 19.7731 4.39462 19.2127 2.5715 18.2035C2.57075 18.2582 2.57075 18.313 2.57075 18.3679C2.57075 24.6993 7.09675 29.9809 13.1032 31.1813C11.1697 31.7047 9.14157 31.7813 7.17375 31.4053C8.8445 36.5968 13.6938 40.3746 19.4393 40.4804C14.9455 43.985 9.28375 46.0742 3.13225 46.0742C2.07225 46.0742 1.02725 46.0123 0 45.8916C5.81075 49.5993 12.7125 51.7626 20.1275 51.7626C44.2793 51.7626 57.486 31.8506 57.486 14.5826C57.486 14.0159 57.4735 13.4523 57.448 12.892C60.0186 11.0426 62.2373 8.75196 64 6.12754Z" fill="#55ACEE"/>
</svg>
