<svg width="61" height="61" viewBox="0 0 61 61" fill="none" xmlns="http://www.w3.org/2000/svg">
<path d="M33.0417 5.08337C31.6935 5.08337 30.4005 5.61894 29.4472 6.57225C28.4939 7.52556 27.9583 8.81852 27.9583 10.1667C27.9583 11.5149 28.4939 12.8079 29.4472 13.7612C30.4005 14.7145 31.6935 15.25 33.0417 15.25C35.8629 15.25 38.125 12.988 38.125 10.1667C38.125 8.81852 37.5894 7.52556 36.6361 6.57225C35.6828 5.61894 34.3898 5.08337 33.0417 5.08337ZM10.1667 17.7917V22.875H25.4167V38.125L12.5304 51.0113L16.1142 54.6459L33.1942 37.5405L43.2083 43.5388V53.375H48.2917V42.1155C48.2917 41.2005 47.8342 40.3871 47.0208 39.9296L38.125 34.5667V22.875H53.375V17.7917H10.1667Z" fill="black"/>
<path d="M33.0417 5.08337C31.6935 5.08337 30.4005 5.61894 29.4472 6.57225C28.4939 7.52556 27.9583 8.81852 27.9583 10.1667C27.9583 11.5149 28.4939 12.8079 29.4472 13.7612C30.4005 14.7145 31.6935 15.25 33.0417 15.25C35.8629 15.25 38.125 12.988 38.125 10.1667C38.125 8.81852 37.5894 7.52556 36.6361 6.57225C35.6828 5.61894 34.3898 5.08337 33.0417 5.08337ZM10.1667 17.7917V22.875H25.4167V38.125L12.5304 51.0113L16.1142 54.6459L33.1942 37.5405L43.2083 43.5388V53.375H48.2916V42.1155C48.2916 41.2005 47.8342 40.3871 47.0208 39.9296L38.125 34.5667V22.875H53.375V17.7917H10.1667Z" fill="black"/>
</svg>
